<?xml version="1.0" standalone="no"?>
<!DOCTYPE svg PUBLIC "-//W3C//DTD SVG 20010904//EN"
 "http://www.w3.org/TR/2001/REC-SVG-20010904/DTD/svg10.dtd">
<svg version="1.0" xmlns="http://www.w3.org/2000/svg"
 width="260.000000pt" height="260.000000pt" viewBox="0 0 260.000000 260.000000"
 preserveAspectRatio="xMidYMid meet">
<metadata>
Created by potrace 1.11, written by Peter Selinger 2001-2013
</metadata>
<g transform="translate(0.000000,260.000000) scale(0.100000,-0.100000)"
fill="#000000" stroke="none">
<path d="M756 2500 c-1 -3 -2 -59 -1 -125 l1 -120 122 -3 122 -3 0 -62 c1 -82
1 -541 0 -592 0 -29 -11 -57 -39 -100 -21 -33 -102 -166 -180 -295 -78 -129
-146 -242 -151 -250 -42 -68 -150 -275 -165 -314 -23 -64 -23 -176 0 -231 24
-58 89 -139 135 -169 74 -49 342 -121 535 -144 79 -9 242 -8 323 2 159 20 391
79 479 121 98 48 183 169 191 273 9 111 -25 194 -207 501 -48 81 -90 154 -94
161 -4 8 -62 104 -130 213 l-123 197 1 343 0 342 129 5 129 5 1 119 c1 89 -2
120 -12 124 -17 6 -1063 9 -1066 2z m984 -125 l0 -35 -445 0 -445 0 0 35 0 35
445 0 445 0 0 -35z m-259 -137 c0 -7 0 -168 0 -358 l0 -344 108 -176 c288
-466 425 -710 441 -783 12 -54 7 -114 -11 -149 -23 -44 -72 -100 -108 -122
-49 -30 -250 -88 -356 -102 -27 -3 -53 -8 -57 -10 -25 -15 -253 -22 -348 -10
-143 16 -368 69 -460 108 -44 19 -92 66 -126 123 -29 50 -34 115 -13 186 15
52 185 351 375 661 76 123 145 237 153 253 14 26 16 80 15 383 l-1 352 194 0
c147 0 193 -3 194 -12z"/>
<path d="M1091 1391 c-30 -19 -416 -677 -433 -738 -21 -74 -13 -138 22 -196
43 -72 83 -101 177 -133 183 -62 437 -89 588 -64 28 5 68 12 89 15 74 13 236
63 271 85 70 43 124 135 125 213 0 79 -63 203 -317 617 -102 166 -132 207
-147 204 -10 -2 -51 -6 -90 -10 -39 -3 -73 -8 -76 -9 -3 -2 -49 2 -103 9 -53
7 -101 10 -106 7z"/>
</g>
</svg>
