<?xml version="1.0" encoding="UTF-8" standalone="no"?>
<!-- Created with Inkscape (http://www.inkscape.org/) -->

<svg
   xmlns:dc="http://purl.org/dc/elements/1.1/"
   xmlns:cc="http://creativecommons.org/ns#"
   xmlns:rdf="http://www.w3.org/1999/02/22-rdf-syntax-ns#"
   xmlns:svg="http://www.w3.org/2000/svg"
   xmlns="http://www.w3.org/2000/svg"
   xmlns:sodipodi="http://sodipodi.sourceforge.net/DTD/sodipodi-0.dtd"
   xmlns:inkscape="http://www.inkscape.org/namespaces/inkscape"
   width="860"
   height="389"
   viewBox="0 0 227.54167 102.92291"
   version="1.1"
   id="svg8"
   inkscape:version="0.92.3 (2405546, 2018-03-11)"
   sodipodi:docname="awesomesauce-logo.svg"
   inkscape:export-filename="C:\Users\Ben\git\awesomesaucelabs.github.io\images\awesomesauce-logo.png"
   inkscape:export-xdpi="96"
   inkscape:export-ydpi="96">
  <defs
     id="defs2">
    <inkscape:path-effect
       oposite_fuse="false"
       fuse_paths="true"
       discard_orig_path="false"
       mode="free"
       is_visible="true"
       id="path-effect4920"
       center_point="67.958104,250.63813"
       end_point="67.958104,261.55735"
       start_point="67.958104,239.71892"
       effect="mirror_symmetry" />
    <inkscape:path-effect
       effect="mirror_symmetry"
       start_point="67.963482,235.22721"
       end_point="67.963482,263.40606"
       center_point="67.963482,249.31664"
       id="path-effect4916"
       is_visible="true"
       mode="free"
       discard_orig_path="false"
       fuse_paths="false"
       oposite_fuse="false" />
  </defs>
  <sodipodi:namedview
     id="base"
     pagecolor="#ffffff"
     bordercolor="#666666"
     borderopacity="1.0"
     inkscape:pageopacity="0.0"
     inkscape:pageshadow="2"
     inkscape:zoom="0.98994949"
     inkscape:cx="438.61394"
     inkscape:cy="207.33142"
     inkscape:document-units="mm"
     inkscape:current-layer="layer1"
     showgrid="false"
     inkscape:window-width="1920"
     inkscape:window-height="1017"
     inkscape:window-x="-8"
     inkscape:window-y="-8"
     inkscape:window-maximized="1"
     inkscape:snap-global="false"
     units="px" />
  <metadata
     id="metadata5">
    <rdf:RDF>
      <cc:Work
         rdf:about="">
        <dc:format>image/svg+xml</dc:format>
        <dc:type
           rdf:resource="http://purl.org/dc/dcmitype/StillImage" />
        <dc:title></dc:title>
      </cc:Work>
    </rdf:RDF>
  </metadata>
  <g
     inkscape:label="Layer 1"
     inkscape:groupmode="layer"
     id="layer1"
     transform="translate(0,-194.07709)">
    <path
       style="fill:#ffff00;fill-opacity:1;stroke:#000000;stroke-width:1.15787363;stroke-linecap:round;stroke-linejoin:round;stroke-miterlimit:4;stroke-dasharray:none;stroke-opacity:1"
       d="m 135.89316,200.18968 -24.40746,0.48787 -23.057632,38.05247 H 106.11961 L 84.157305,270.31484 H 96.670827 L 84.444949,292.4576 124.7184,262.02135 h -15.53403 l 23.25677,-31.58483 -17.26003,-0.48786 z"
       id="path6246"
       inkscape:connector-curvature="0"
       sodipodi:nodetypes="cccccccccccc" />
    <text
       xml:space="preserve"
       style="font-style:normal;font-variant:normal;font-weight:normal;font-stretch:normal;font-size:14.01968765px;line-height:1.25;font-family:'Zuka Doodle';-inkscape-font-specification:'Zuka Doodle';text-align:center;letter-spacing:0px;word-spacing:0px;text-anchor:middle;fill:#000000;fill-opacity:1;stroke:none;stroke-width:0.35049221;stroke-opacity:1"
       x="117.1066"
       y="226.49205"
       id="text4749"><tspan
         sodipodi:role="line"
         x="117.1066"
         y="226.49205"
         style="font-style:normal;font-variant:normal;font-weight:normal;font-stretch:normal;font-size:26.170084px;font-family:Cartoonish;-inkscape-font-specification:Cartoonish;text-align:center;text-anchor:middle;fill:#000000;fill-opacity:1;stroke:none;stroke-width:0.35049221;stroke-opacity:1"
         id="tspan4753">Awesomesauce</tspan><tspan
         sodipodi:role="line"
         x="117.1066"
         y="259.20465"
         style="font-style:normal;font-variant:normal;font-weight:normal;font-stretch:normal;font-size:26.170084px;font-family:Cartoonish;-inkscape-font-specification:Cartoonish;text-align:center;text-anchor:middle;fill:#000000;fill-opacity:1;stroke:none;stroke-width:0.35049221;stroke-opacity:1"
         id="tspan4751">Labs</tspan></text>
    <path
       style="fill:none;stroke:#000000;stroke-width:1.19222534;stroke-linecap:butt;stroke-linejoin:miter;stroke-miterlimit:4;stroke-dasharray:none;stroke-opacity:1"
       d="m 64.845611,235.2272 v 9.78232 c 0,0 -6.547544,10.44488 -7.015227,12.04281 -0.46767,1.5979 -0.116971,2.57224 0.467683,3.3517 0.584601,0.77948 0.935367,1.20819 2.026624,1.59792 1.091258,0.38973 4.8327,1.44202 7.638788,1.40305 m 3.117874,-28.1778 v 9.78232 c 0,0 6.547544,10.44488 7.015227,12.04281 0.46767,1.5979 0.116971,2.57224 -0.467683,3.3517 -0.584601,0.77948 -0.935367,1.20819 -2.026624,1.59792 -1.091258,0.38973 -4.8327,1.44202 -7.638788,1.40305"
       id="path4914"
       inkscape:connector-curvature="0"
       inkscape:path-effect="#path-effect4916"
       inkscape:original-d="m 64.845611,235.2272 v 9.78232 c 0,0 -6.547544,10.44488 -7.015227,12.04281 -0.46767,1.5979 -0.116971,2.57224 0.467683,3.3517 0.584601,0.77948 0.935367,1.20819 2.026624,1.59792 1.091258,0.38973 4.8327,1.44202 7.638788,1.40305" />
    <path
       inkscape:original-d="m 67.97703,247.5799 -2.435253,-0.27975 c 0,0 -5.074297,8.09473 -5.436746,9.3331 -0.36245,1.23836 -0.09061,1.99346 0.362449,2.59755 0.45306,0.60409 0.7249,0.93633 1.570626,1.23836 0.845711,0.30205 3.745309,1.11756 5.919994,1.08736"
       inkscape:path-effect="#path-effect4920"
       inkscape:connector-curvature="0"
       id="path4918"
       d="m 67.958108,261.55652 c 2.174685,0.0302 5.074283,-0.78531 5.919994,-1.08736 0.845726,-0.30203 1.117566,-0.63427 1.570626,-1.23836 0.453059,-0.60409 0.724899,-1.35919 0.362449,-2.59755 -0.362449,-1.23837 -5.436746,-9.3331 -5.436746,-9.3331 l -2.416327,0.27758 -2.416327,-0.27758 c 0,0 -5.074297,8.09473 -5.436746,9.3331 -0.36245,1.23836 -0.09061,1.99346 0.362449,2.59755 0.45306,0.60409 0.7249,0.93633 1.570626,1.23836 0.845711,0.30205 3.745309,1.11756 5.919994,1.08736"
       style="fill:#00e727;fill-opacity:1;stroke:#00e727;stroke-width:0.61703539;stroke-linecap:butt;stroke-linejoin:miter;stroke-miterlimit:4;stroke-dasharray:none;stroke-opacity:1"
       sodipodi:nodetypes="cccscc" />
    <rect
       style="opacity:1;vector-effect:none;fill:none;fill-opacity:1;stroke:#000000;stroke-width:1.19222534;stroke-linecap:butt;stroke-linejoin:miter;stroke-miterlimit:4;stroke-dasharray:none;stroke-dashoffset:0;stroke-opacity:1"
       id="rect4922"
       width="12.787091"
       height="2.0944386"
       x="61.66531"
       y="233.21112" />
    <circle
       style="opacity:1;vector-effect:none;fill:#80f394;fill-opacity:1;stroke:none;stroke-width:0.83203733;stroke-linecap:butt;stroke-linejoin:miter;stroke-miterlimit:4;stroke-dasharray:none;stroke-dashoffset:0;stroke-opacity:1"
       id="path4935"
       cx="72.110832"
       cy="257.76849"
       r="1.8456005" />
    <circle
       r="0.71570671"
       cy="254.10324"
       cx="72.854881"
       id="circle4937"
       style="opacity:1;vector-effect:none;fill:#80f394;fill-opacity:1;stroke:none;stroke-width:0.32265636;stroke-linecap:butt;stroke-linejoin:miter;stroke-miterlimit:4;stroke-dasharray:none;stroke-dashoffset:0;stroke-opacity:1" />
    <circle
       style="opacity:1;vector-effect:none;fill:#80f394;fill-opacity:1;stroke:none;stroke-width:0.47174346;stroke-linecap:butt;stroke-linejoin:miter;stroke-miterlimit:4;stroke-dasharray:none;stroke-dashoffset:0;stroke-opacity:1"
       id="circle4939"
       cx="68.555794"
       cy="257.18979"
       r="1.0464073" />
    <path
       style="fill:none;stroke:#b2f8be;stroke-width:0.97116601;stroke-linecap:round;stroke-linejoin:miter;stroke-miterlimit:4;stroke-dasharray:none;stroke-opacity:1"
       d="m 61.461757,258.10191 3.585551,-7.1711"
       id="path4941"
       inkscape:connector-curvature="0" />
    <path
       style="fill:none;stroke:#e7ffe6;stroke-width:0.97116601;stroke-linecap:round;stroke-linejoin:miter;stroke-miterlimit:4;stroke-dasharray:none;stroke-opacity:1"
       d="m 65.819619,249.48056 0.551165,-1.15745"
       id="path4943"
       inkscape:connector-curvature="0" />
    <path
       inkscape:connector-curvature="0"
       style="font-style:normal;font-variant:normal;font-weight:normal;font-stretch:normal;font-size:19.75555611px;line-height:1.25;font-family:Cartoonish;-inkscape-font-specification:Cartoonish;text-align:center;letter-spacing:0px;word-spacing:0px;text-anchor:middle;fill:#00e727;fill-opacity:1;stroke:none;stroke-width:0.35049221;stroke-opacity:1"
       d="m 70.616101,208.43359 h 0.497675 c 0.157015,0 0.313953,0.0171 0.470968,0.0521 v 0.75916 c 0,0.24427 -0.0092,0.48891 -0.02596,0.73317 -0.279153,-0.0348 -0.558742,-0.0528 -0.837895,-0.0528 h -0.811204 c -1.011908,0 -2.014835,0.0434 -3.009297,0.13074 -0.994461,0.0699 -1.997401,0.13115 -3.009309,0.18346 0.03484,0.90723 0.06054,1.81455 0.07803,2.72179 0.03484,0.88978 0.05272,1.78787 0.05272,2.6951 0.662984,-0.0348 1.299288,-0.13907 1.909919,-0.31354 0.628078,-0.19191 1.273628,-0.28819 1.936599,-0.28819 -0.01736,0.24425 -0.03458,0.49747 -0.05206,0.75917 0,0.24426 -0.01709,0.48822 -0.05206,0.73247 -0.610632,0.12214 -1.221912,0.17493 -1.832544,0.15744 -0.610631,-0.0174 -1.221236,0.0261 -1.831867,0.13075 v 1.25616 c 0.01748,0.41872 0.02676,0.846 0.02676,1.28217 0,0.45361 -0.0092,0.91584 -0.02676,1.38691 -0.01736,0.47106 -0.06955,0.93328 -0.156764,1.38691 l 0.183457,0.20947 c 0.296585,-0.0348 0.5755,-0.0698 0.837207,-0.10477 0.279153,-0.0348 0.567313,-0.0521 0.863912,-0.0521 0.279153,0 0.566626,0.0263 0.863225,0.0787 0.785093,0.10467 1.552635,0.20884 2.302836,0.31352 0.767661,0.10466 1.544449,0.21809 2.329543,0.34023 l 0.156764,1.20413 c -0.191909,0.0175 -0.383791,0.026 -0.575712,0.026 h -0.549696 c -0.942123,0 -1.875158,-0.0171 -2.799822,-0.052 -0.90723,-0.0523 -1.823124,-0.1051 -2.747815,-0.15744 h -0.209474 c -0.06982,-0.0175 -0.139702,-0.026 -0.209474,-0.026 -0.296599,0 -0.593331,0.0263 -0.889917,0.0787 -0.279153,0.0348 -0.566624,0.0699 -0.863223,0.10478 -0.08716,-0.80256 -0.139968,-1.60572 -0.157454,-2.40827 -0.01748,-0.80254 -0.02596,-1.61361 -0.02596,-2.43361 0,-0.34892 -0.008,-0.70631 -0.02596,-1.07269 0,-0.36638 0.008,-0.72445 0.02596,-1.07337 0.03484,-0.75022 0.06982,-1.49137 0.104785,-2.22413 0.03484,-0.73275 0.0612,-1.47459 0.07868,-2.2248 v -0.86322 -0.96864 -0.96797 c 0.01748,-0.31404 0.04319,-0.60221 0.07803,-0.86392 0.01735,-0.17451 0.0702,-0.2701 0.157439,-0.28751 0.0873,-0.0348 0.200665,-0.0612 0.340236,-0.0787 0.523399,-0.0699 1.04627,-0.11326 1.569671,-0.13075 0.540859,-0.0175 1.072989,-0.0267 1.596389,-0.0267 0.314046,0 0.627905,0.01 0.941951,0.0267 0.314032,0.0175 0.619334,0.026 0.915934,0.026 0.401276,0 0.794287,-0.0178 1.178117,-0.0528 0.401277,-0.0348 0.80217,-0.0521 1.203446,-0.0521 z"
       id="path6183" />
    <path
       inkscape:connector-curvature="0"
       style="font-style:normal;font-variant:normal;font-weight:normal;font-stretch:normal;font-size:19.75555611px;line-height:1.25;font-family:Cartoonish;-inkscape-font-specification:Cartoonish;text-align:center;letter-spacing:0px;word-spacing:0px;text-anchor:middle;fill:#00e727;fill-opacity:1;stroke:none;stroke-width:0.35049221;stroke-opacity:1"
       d="m 132.92362,208.43359 h 0.49699 c 0.15702,0 0.31396,0.0171 0.47097,0.0521 v 0.75916 c 0,0.24427 -0.008,0.48891 -0.026,0.73317 -0.27915,-0.0348 -0.55806,-0.0528 -0.8372,-0.0528 h -0.81121 c -1.0119,0 -2.01552,0.0434 -3.00998,0.13074 -0.99447,0.0699 -1.9974,0.13115 -3.00931,0.18346 0.0348,0.90723 0.0613,1.81455 0.0787,2.72179 0.0348,0.88978 0.052,1.78787 0.052,2.6951 0.66298,-0.0348 1.29997,-0.13907 1.91059,-0.31354 0.62809,-0.19191 1.27363,-0.28819 1.93662,-0.28819 -0.0173,0.24425 -0.0352,0.49747 -0.0528,0.75917 0,0.24426 -0.0171,0.48822 -0.0521,0.73247 -0.61063,0.12214 -1.22122,0.17493 -1.83187,0.15744 -0.61063,-0.0174 -1.22124,0.0261 -1.83186,0.13075 v 1.25616 c 0.0173,0.41872 0.026,0.846 0.026,1.28217 0,0.45361 -0.01,0.91584 -0.026,1.38691 -0.0173,0.47106 -0.0695,0.93328 -0.15678,1.38691 l 0.18279,0.20947 c 0.29659,-0.0348 0.57552,-0.0698 0.83721,-0.10477 0.27915,-0.0348 0.56731,-0.0521 0.86391,-0.0521 0.27914,0 0.5673,0.0263 0.8639,0.0787 0.7851,0.10467 1.55265,0.20884 2.30285,0.31352 0.76765,0.10466 1.54374,0.21809 2.32885,0.34023 l 0.15746,1.20413 c -0.19192,0.0175 -0.38381,0.026 -0.57572,0.026 h -0.5497 c -0.94213,0 -1.87584,-0.0171 -2.80051,-0.052 -0.90724,-0.0523 -1.82313,-0.1051 -2.74781,-0.15744 h -0.20947 c -0.0699,-0.0175 -0.1397,-0.026 -0.20947,-0.026 -0.2966,0 -0.59265,0.0263 -0.88925,0.0787 -0.27914,0.0348 -0.5673,0.0699 -0.86389,0.10478 -0.0872,-0.80256 -0.13928,-1.60572 -0.15677,-2.40827 -0.0173,-0.80254 -0.026,-1.61361 -0.026,-2.43361 0,-0.34892 -0.01,-0.70631 -0.0268,-1.07269 0,-0.36638 0.01,-0.72445 0.0268,-1.07337 0.0348,-0.75022 0.0692,-1.49137 0.10402,-2.22413 0.035,-0.73275 0.0614,-1.47459 0.0787,-2.2248 v -0.86322 -0.96864 -0.96797 c 0.0175,-0.31404 0.0438,-0.60221 0.0787,-0.86392 0.0173,-0.17451 0.0695,-0.2701 0.15677,-0.28751 0.0873,-0.0348 0.20064,-0.0612 0.34022,-0.0787 0.52339,-0.0699 1.04696,-0.11326 1.57038,-0.13075 0.54083,-0.0175 1.07297,-0.0267 1.59637,-0.0267 0.31405,0 0.62791,0.01 0.94195,0.0267 0.31403,0.0175 0.61933,0.026 0.91594,0.026 0.40127,0 0.7936,-0.0178 1.17742,-0.0528 0.40128,-0.0348 0.80285,-0.0521 1.20413,-0.0521 z"
       id="path6181" />
    <path
       inkscape:connector-curvature="0"
       style="font-style:normal;font-variant:normal;font-weight:normal;font-stretch:normal;font-size:19.75555611px;line-height:1.25;font-family:Cartoonish;-inkscape-font-specification:Cartoonish;text-align:center;letter-spacing:0px;word-spacing:0px;text-anchor:middle;fill:#00e727;fill-opacity:1;stroke:none;stroke-width:0.35049221;stroke-opacity:1"
       d="m 207.65171,208.43359 h 0.49698 c 0.15702,0 0.31396,0.0171 0.47097,0.0521 v 0.75916 c 0,0.24427 -0.008,0.48891 -0.026,0.73317 -0.27915,-0.0348 -0.55806,-0.0528 -0.8372,-0.0528 h -0.8112 c -1.01192,0 -2.01554,0.0434 -3.00999,0.13074 -0.99447,0.0699 -1.9974,0.13115 -3.00931,0.18346 0.0348,0.90723 0.0613,1.81455 0.0787,2.72179 0.0348,0.88978 0.0521,1.78787 0.0521,2.6951 0.66297,-0.0348 1.29996,-0.13907 1.91058,-0.31354 0.6281,-0.19191 1.27364,-0.28819 1.93661,-0.28819 -0.0173,0.24425 -0.0352,0.49747 -0.0528,0.75917 0,0.24426 -0.0171,0.48822 -0.0521,0.73247 -0.61063,0.12214 -1.22124,0.17493 -1.83188,0.15744 -0.61062,-0.0174 -1.22122,0.0261 -1.83186,0.13075 v 1.25616 c 0.0175,0.41872 0.026,0.846 0.026,1.28217 0,0.45361 -0.008,0.91584 -0.026,1.38691 -0.0173,0.47106 -0.0702,0.93328 -0.15744,1.38691 l 0.18345,0.20947 c 0.29659,-0.0348 0.57551,-0.0698 0.8372,-0.10477 0.27916,-0.0348 0.56734,-0.0521 0.86392,-0.0521 0.27915,0 0.56664,0.0263 0.86323,0.0787 0.7851,0.10467 1.55331,0.20884 2.30352,0.31352 0.76766,0.10466 1.54376,0.21809 2.32886,0.34023 l 0.15676,1.20413 c -0.19191,0.0175 -0.38379,0.026 -0.57572,0.026 h -0.549 c -0.94213,0 -1.87585,-0.0171 -2.80053,-0.052 -0.90721,-0.0523 -1.8231,-0.1051 -2.7478,-0.15744 h -0.20947 c -0.0699,-0.0175 -0.1397,-0.026 -0.20947,-0.026 -0.2966,0 -0.59334,0.0263 -0.88993,0.0787 -0.27915,0.0348 -0.56661,0.0699 -0.86321,0.10478 -0.0873,-0.80256 -0.13936,-1.60572 -0.15677,-2.40827 -0.0175,-0.80254 -0.0268,-1.61361 -0.0268,-2.43361 0,-0.34892 -0.01,-0.70631 -0.026,-1.07269 0,-0.36638 0.01,-0.72445 0.026,-1.07337 0.0348,-0.75022 0.0699,-1.49137 0.10478,-2.22413 0.0349,-0.73275 0.0614,-1.47459 0.0787,-2.2248 v -0.86322 -0.96864 -0.96797 c 0.0175,-0.31404 0.0438,-0.60221 0.0787,-0.86392 0.0174,-0.17451 0.0695,-0.2701 0.15677,-0.28751 0.0873,-0.0348 0.20065,-0.0612 0.34022,-0.0787 0.5234,-0.0699 1.04697,-0.11326 1.57037,-0.13075 0.54085,-0.0175 1.07297,-0.0267 1.59638,-0.0267 0.31404,0 0.6279,0.01 0.94195,0.0267 0.31405,0.0175 0.61935,0.026 0.91593,0.026 0.40128,0 0.79362,-0.0178 1.17745,-0.0528 0.40127,-0.0348 0.80285,-0.0521 1.20412,-0.0521 z"
       id="path6179" />
    <path
       inkscape:connector-curvature="0"
       style="font-style:normal;font-variant:normal;font-weight:normal;font-stretch:normal;font-size:19.75555611px;line-height:1.25;font-family:Cartoonish;-inkscape-font-specification:Cartoonish;text-align:center;letter-spacing:0px;word-spacing:0px;text-anchor:middle;fill:#00e727;fill-opacity:1;stroke:none;stroke-width:0.35049221;stroke-opacity:1"
       d="m 41.323991,208.4863 c 0.226808,0 0.418691,0.0434 0.575712,0.13074 0.139551,0.22681 0.25297,0.47078 0.340226,0.73248 0.08722,0.24425 0.174244,0.4889 0.261498,0.73315 0.08726,0.2617 0.165721,0.53206 0.235487,0.81121 0.06977,0.2617 0.148233,0.52346 0.235488,0.78517 0.15702,0.50597 0.314638,1.00315 0.471658,1.49165 0.174465,0.48852 0.339966,0.98569 0.496986,1.49164 0.06976,0.22682 0.131092,0.45365 0.183463,0.68046 0.05231,0.22682 0.121541,0.46221 0.208788,0.70646 0.08722,0.26171 0.174929,0.52348 0.262186,0.78519 0.104666,0.26169 0.200259,0.52348 0.287511,0.78518 0.157021,0.50595 0.305384,1.01169 0.44496,1.51765 0.157022,0.50596 0.305392,1.01172 0.444961,1.51766 0.191916,-0.0348 0.340285,-0.10413 0.44496,-0.20878 0.122164,-0.12213 0.217747,-0.26193 0.287515,-0.41895 0.06974,-0.15703 0.131092,-0.32252 0.183463,-0.49699 0.05237,-0.17446 0.113686,-0.33207 0.183458,-0.47167 0.15702,-0.29658 0.287565,-0.60188 0.392249,-0.91592 0.122124,-0.3315 0.23555,-0.66248 0.340227,-0.99398 0.122123,-0.33149 0.244107,-0.64604 0.366238,-0.94263 0.139568,-0.31404 0.305757,-0.61008 0.497674,-0.88923 0.296599,-0.0175 0.601889,-0.0268 0.915934,-0.0268 0.314031,0 0.619335,-0.0171 0.915934,-0.0521 0.348937,1.06427 0.64498,2.13707 0.889227,3.21878 0.244261,1.0817 0.56738,2.14597 0.968657,3.19278 0.296586,-0.29661 0.514856,-0.63686 0.654425,-1.02068 0.139584,-0.40128 0.296521,-0.79362 0.470983,-1.17744 0.05232,-0.13958 0.104387,-0.26155 0.156764,-0.36623 0.06982,-0.12214 0.139703,-0.2448 0.20946,-0.36694 0.15703,-0.31403 0.296825,-0.63647 0.418963,-0.96794 0.139569,-0.3315 0.278688,-0.66317 0.418259,-0.99467 0.348937,-0.7851 0.706989,-1.5612 1.073387,-2.32885 0.383817,-0.7851 0.793968,-1.55264 1.230138,-2.30285 0.296586,-0.50595 0.557683,-1.01238 0.784498,-1.51834 0.226813,-0.52339 0.488599,-1.03771 0.785185,-1.54367 0.209369,-0.0175 0.419055,-0.0267 0.628423,-0.0267 0.209354,0 0.418378,-0.008 0.627733,-0.026 -0.244248,0.62809 -0.523162,1.23869 -0.837208,1.83188 -0.314045,0.57574 -0.584388,1.18633 -0.81119,1.83186 -0.314045,0.90724 -0.680681,1.79744 -1.099404,2.66977 -0.401276,0.87234 -0.78504,1.75328 -1.151424,2.64307 -0.383817,0.88977 -0.741207,1.7793 -1.072699,2.66908 -0.314032,0.88978 -0.645722,1.78855 -0.994661,2.69578 -0.296585,0.0699 -0.628262,0.10478 -0.994646,0.10478 h -0.601729 c -0.209356,-0.0175 -0.409809,-0.0438 -0.601717,-0.0787 -0.0873,-0.0175 -0.148578,-0.0438 -0.18347,-0.0787 -0.01748,-0.0523 -0.04384,-0.12227 -0.07868,-0.20946 -0.314032,-0.83745 -0.584389,-1.692 -0.81119,-2.56435 -0.226814,-0.88978 -0.462199,-1.77073 -0.70646,-2.64307 l -0.444965,0.026 c -0.471061,0.88977 -0.906915,1.79711 -1.308182,2.72178 -0.401276,0.92468 -0.759342,1.86697 -1.073383,2.82653 -0.244254,0.0348 -0.506037,0.0692 -0.785182,0.10402 -0.279151,0.0175 -0.540245,0.0268 -0.784504,0.0268 -0.191884,0 -0.331691,-0.0963 -0.418948,-0.2882 -0.0872,-0.20935 -0.157104,-0.38341 -0.209471,-0.52298 -0.174464,-0.50596 -0.314261,-1.01241 -0.418949,-1.51836 -0.08724,-0.5234 -0.200655,-1.03772 -0.340224,-1.54366 -0.209363,-0.73276 -0.401246,-1.45679 -0.575711,-2.1721 -0.174472,-0.73277 -0.383481,-1.46534 -0.627735,-2.1981 -0.104677,-0.34894 -0.235916,-0.68063 -0.392937,-0.99466 -0.13957,-0.33149 -0.278684,-0.66317 -0.418264,-0.99466 -0.139568,-0.33148 -0.279367,-0.69744 -0.418947,-1.09872 -0.139569,-0.41871 -0.27937,-0.84667 -0.418947,-1.28284 -0.122123,-0.43617 -0.24411,-0.86346 -0.366235,-1.28218 -0.122124,-0.41871 -0.235538,-0.81105 -0.340227,-1.17744 0.174472,0.0349 0.340653,0.0434 0.497675,0.026 0.174468,-0.0348 0.339963,-0.0521 0.496983,-0.0521 z"
       id="path6177" />
    <path
       inkscape:connector-curvature="0"
       style="font-style:normal;font-variant:normal;font-weight:normal;font-stretch:normal;font-size:19.75555611px;line-height:1.25;font-family:Cartoonish;-inkscape-font-specification:Cartoonish;text-align:center;letter-spacing:0px;word-spacing:0px;text-anchor:middle;fill:#00e727;fill-opacity:1;stroke:none;stroke-width:0.35049221;stroke-opacity:1"
       d="m 81.04598,208.53832 c 0.593198,0 1.168845,0.10477 1.727138,0.31422 0.24426,0.10467 0.52385,0.22666 0.837896,0.36623 0.314031,0.13958 0.601531,0.31432 0.863223,0.52368 0.279153,0.19192 0.514552,0.4095 0.706461,0.65376 0.191908,0.24426 0.2882,0.52385 0.2882,0.83789 0,0.0699 -0.01788,0.17395 -0.05272,0.31353 -0.104656,0.12214 -0.208852,0.23555 -0.31353,0.34023 -0.104655,0.10466 -0.20954,0.20952 -0.314217,0.3142 -0.383817,-0.62808 -0.90739,-1.12527 -1.57036,-1.49165 -0.662983,-0.38381 -1.369177,-0.57572 -2.119379,-0.57572 -0.959582,0 -1.709982,0.26179 -2.250829,0.7852 -0.540847,0.52339 -0.81119,1.2738 -0.81119,2.25081 v 0.10402 c 0.08716,0.40128 0.279113,0.75934 0.575712,1.07339 0.296586,0.31404 0.619017,0.56657 0.967955,0.75847 0.279153,0.15707 0.584442,0.27047 0.915934,0.34024 0.331492,0.0523 0.654611,0.0966 0.968643,0.13142 0.331492,0.0349 0.653922,0.087 0.967968,0.15676 0.331492,0.0699 0.64604,0.19177 0.942627,0.36624 0.505954,0.31404 0.933247,0.7677 1.282172,1.36089 0.366384,0.57576 0.636741,1.14283 0.811203,1.70112 0.139569,0.45361 0.209475,0.8809 0.209475,1.28218 0,0.4885 -0.148367,0.95073 -0.444966,1.3869 -0.27914,0.43617 -0.645775,0.82919 -1.099391,1.17812 -0.436168,0.33148 -0.915536,0.60184 -1.438937,0.8112 -0.505967,0.20936 -0.977438,0.33136 -1.413608,0.36623 -0.191908,0.0175 -0.392374,0.0354 -0.601729,0.0528 h -0.5757 c -0.331491,0 -0.636793,-0.0263 -0.915946,-0.0787 -0.261694,-0.0699 -0.540609,-0.20102 -0.837208,-0.39293 -0.558293,-0.38383 -1.056166,-0.81969 -1.492322,-1.30819 -0.418736,-0.50596 -0.802486,-1.05592 -1.151424,-1.64909 0.174462,-0.20936 0.392732,-0.43619 0.654439,-0.68045 0.27914,0.36638 0.575871,0.71589 0.889916,1.04736 0.314033,0.31406 0.654281,0.60152 1.020665,0.86323 0.366384,0.24425 0.758705,0.44539 1.177442,0.60241 0.418723,0.13957 0.87239,0.20879 1.360899,0.20879 0.27914,0 0.575871,-0.0349 0.889916,-0.10478 0.314045,-0.0872 0.601518,-0.20921 0.863225,-0.36624 0.261693,-0.17446 0.488534,-0.37491 0.680443,-0.60172 0.191895,-0.24425 0.314561,-0.52317 0.366926,-0.8372 0.03484,-0.10466 0.05206,-0.2181 0.05206,-0.34024 v -0.34022 c 0,-0.68041 -0.104785,-1.2475 -0.314206,-1.70112 -0.209354,-0.47106 -0.496839,-0.85481 -0.863223,-1.15141 -0.366385,-0.2966 -0.802911,-0.53268 -1.308865,-0.70714 -0.505954,-0.19193 -1.046669,-0.35743 -1.622394,-0.497 -0.942123,-0.20936 -1.649006,-0.59312 -2.120068,-1.15142 -0.471061,-0.55829 -0.706474,-1.32582 -0.706474,-2.30285 v -0.15675 c 0.0873,-0.54085 0.288373,-1.09937 0.602419,-1.67511 0.331478,-0.59319 0.697426,-1.07323 1.098702,-1.43962 0.348938,-0.33149 0.750519,-0.56689 1.204135,-0.70646 0.471061,-0.15702 0.941857,-0.23549 1.412919,-0.23549 z"
       id="path6175" />
    <path
       inkscape:connector-curvature="0"
       style="font-style:normal;font-variant:normal;font-weight:normal;font-stretch:normal;font-size:19.75555611px;line-height:1.25;font-family:Cartoonish;-inkscape-font-specification:Cartoonish;text-align:center;letter-spacing:0px;word-spacing:0px;text-anchor:middle;fill:#00e727;fill-opacity:1;stroke:none;stroke-width:0.35049221;stroke-opacity:1"
       d="m 95.826217,208.53832 c -0.38384,0 -0.7676,0.0521 -1.15143,0.15676 -0.38382,0.10467 -0.74977,0.22734 -1.0987,0.36692 -0.61063,0.24426 -1.11708,0.61022 -1.51836,1.09871 -0.38381,0.47106 -0.73263,0.98607 -1.04668,1.54436 -0.0873,0.13959 -0.17427,0.28795 -0.26149,0.44497 -0.0698,0.13957 -0.13968,0.27869 -0.20948,0.41825 -0.13956,0.31405 -0.24441,0.67212 -0.31421,1.07339 -0.0698,0.40128 -0.11326,0.77647 -0.13075,1.1254 l -0.130748,-0.20947 c 0.03484,0.41873 0.04345,0.83744 0.02596,1.25616 v 1.22946 c 0,0.7502 0.06133,1.48347 0.183458,2.1988 0.13958,0.83744 0.35717,1.57858 0.65375,2.22411 0.2966,0.64553 0.82017,1.19548 1.57037,1.6491 0.43617,0.2617 0.88984,0.54062 1.3609,0.83721 0.48851,0.27915 0.99425,0.41894 1.51766,0.41894 0.68041,0 1.39588,-0.10477 2.14608,-0.3142 0.76766,-0.22682 1.42177,-0.56707 1.96261,-1.02068 0.36639,-0.31403 0.680943,-0.68066 0.942653,-1.09939 0.27914,-0.43617 0.50597,-0.88984 0.68044,-1.3609 0.17447,-0.47107 0.30502,-0.95899 0.39225,-1.46493 0.0873,-0.50596 0.13075,-0.99459 0.13075,-1.46566 0,-0.55827 -0.0349,-1.1168 -0.10477,-1.6751 -0.0699,-0.57575 -0.14824,-1.14283 -0.23548,-1.70112 -0.0872,-0.61064 -0.27915,-1.20341 -0.57572,-1.77915 -0.27915,-0.59318 -0.593,-1.15171 -0.941953,-1.67511 -0.31403,-0.48851 -0.71561,-0.89865 -1.20413,-1.23015 -0.4885,-0.33148 -0.99425,-0.60183 -1.51765,-0.81119 -0.19191,-0.0873 -0.37524,-0.14859 -0.5497,-0.18347 -0.17446,-0.0348 -0.36635,-0.052 -0.57571,-0.052 z m -0.2355,1.43962 c 0.31405,0 0.58441,0.0257 0.81121,0.078 0.24425,0.0523 0.50603,0.14865 0.78519,0.28819 0.47105,0.22681 0.8812,0.5585 1.23015,0.99466 0.36637,0.43617 0.67167,0.91553 0.91593,1.43894 0.24424,0.52339 0.42756,1.07335 0.5497,1.64909 0.122133,0.55829 0.182763,1.09042 0.182763,1.59638 0,0.13957 -0.008,0.28794 -0.026,0.44496 v 0.44428 c 0,0.54085 -0.0434,1.11718 -0.130753,1.72782 -0.0698,0.59318 -0.20955,1.16882 -0.41894,1.72713 -0.20937,0.54085 -0.49685,1.03802 -0.86322,1.49165 -0.34894,0.4536 -0.8026,0.79386 -1.3609,1.02067 -0.19191,0.0873 -0.38379,0.14789 -0.57572,0.18277 -0.19192,0.0175 -0.38379,0.0268 -0.5757,0.0268 -0.83744,0 -1.57071,-0.2097 -2.19879,-0.62841 -0.61064,-0.41873 -1.11639,-0.95087 -1.51766,-1.59638 -0.38383,-0.64555 -0.67131,-1.35173 -0.86323,-2.11939 -0.19191,-0.7851 -0.2882,-1.5355 -0.2882,-2.25083 0,-0.4885 0.0521,-1.08196 0.15677,-1.77983 0.10465,-0.71532 0.27944,-1.40439 0.52369,-2.06736 0.26171,-0.66296 0.59338,-1.23863 0.99466,-1.72713 0.41871,-0.48852 0.93304,-0.77667 1.54367,-0.86391 0.36638,-0.0523 0.74157,-0.078 1.1254,-0.078 z"
       id="path6173" />
    <path
       inkscape:connector-curvature="0"
       style="font-style:normal;font-variant:normal;font-weight:normal;font-stretch:normal;font-size:19.75555611px;line-height:1.25;font-family:Cartoonish;-inkscape-font-specification:Cartoonish;text-align:center;letter-spacing:0px;word-spacing:0px;text-anchor:middle;fill:#00e727;fill-opacity:1;stroke:none;stroke-width:0.35049221;stroke-opacity:1"
       d="m 143.3535,208.53832 c 0.59319,0 1.16884,0.10477 1.72713,0.31422 0.24426,0.10467 0.52318,0.22666 0.83722,0.36623 0.31403,0.13958 0.60221,0.31432 0.86391,0.52368 0.27914,0.19192 0.51455,0.4095 0.70645,0.65376 0.19192,0.24426 0.2882,0.52385 0.2882,0.83789 0,0.0699 -0.0178,0.17395 -0.0528,0.31353 -0.10466,0.12214 -0.20952,0.23555 -0.31421,0.34023 -0.10467,0.10466 -0.20885,0.20952 -0.31354,0.3142 -0.38381,-0.62808 -0.90737,-1.12527 -1.57035,-1.49165 -0.66298,-0.38381 -1.36987,-0.57572 -2.12007,-0.57572 -0.95957,0 -1.7093,0.26179 -2.25012,0.7852 -0.54086,0.52339 -0.8119,1.2738 -0.8119,2.25081 v 0.10402 c 0.0872,0.40128 0.27912,0.75934 0.57571,1.07339 0.29659,0.31404 0.61972,0.56657 0.96865,0.75847 0.27915,0.15707 0.58444,0.27047 0.91594,0.34024 0.33148,0.0523 0.65391,0.0966 0.96796,0.13142 0.33149,0.0349 0.6546,0.087 0.96864,0.15676 0.33149,0.0699 0.64536,0.19177 0.94196,0.36624 0.50595,0.31404 0.93323,0.7677 1.28217,1.36089 0.36638,0.57576 0.63741,1.14283 0.81187,1.70112 0.13958,0.45361 0.20879,0.8809 0.20879,1.28218 0,0.4885 -0.14835,0.95073 -0.44496,1.3869 -0.27914,0.43617 -0.64509,0.82919 -1.09871,1.17812 -0.43617,0.33148 -0.91621,0.60184 -1.43962,0.8112 -0.50596,0.20936 -0.97675,0.33136 -1.41292,0.36623 -0.19191,0.0175 -0.39237,0.0354 -0.60172,0.0528 h -0.57571 c -0.33148,0 -0.63679,-0.0263 -0.91593,-0.0787 -0.26171,-0.0699 -0.5413,-0.20102 -0.8379,-0.39293 -0.5583,-0.38383 -1.05548,-0.81969 -1.49165,-1.30819 -0.41872,-0.50596 -0.80248,-1.05592 -1.15143,-1.64909 0.17449,-0.20936 0.39274,-0.43619 0.65445,-0.68045 0.27914,0.36638 0.57587,0.71589 0.88992,1.04736 0.31404,0.31406 0.65362,0.60152 1.01998,0.86323 0.36639,0.24425 0.7594,0.44539 1.17812,0.60241 0.41874,0.13957 0.8724,0.20879 1.3609,0.20879 0.27914,0 0.57588,-0.0349 0.88991,-0.10478 0.31405,-0.0872 0.60152,-0.20921 0.86323,-0.36624 0.26171,-0.17446 0.48854,-0.37491 0.68044,-0.60172 0.1919,-0.24425 0.31388,-0.52317 0.36626,-0.8372 0.0348,-0.10466 0.0528,-0.2181 0.0528,-0.34024 v -0.34022 c 0,-0.68041 -0.10478,-1.2475 -0.31422,-1.70112 -0.20935,-0.47106 -0.49753,-0.85481 -0.86391,-1.15141 -0.36639,-0.2966 -0.80223,-0.53268 -1.30818,-0.70714 -0.50595,-0.19193 -1.04665,-0.35743 -1.62239,-0.497 -0.94212,-0.20936 -1.649,-0.59312 -2.12007,-1.15142 -0.47106,-0.55829 -0.70646,-1.32582 -0.70646,-2.30285 v -0.15675 c 0.0872,-0.54085 0.28767,-1.09937 0.60172,-1.67511 0.33149,-0.59319 0.69813,-1.07323 1.09938,-1.43962 0.34895,-0.33149 0.74985,-0.56689 1.20346,-0.70646 0.47107,-0.15702 0.94256,-0.23549 1.41361,-0.23549 z"
       id="path6171" />
    <path
       inkscape:connector-curvature="0"
       style="font-style:normal;font-variant:normal;font-weight:normal;font-stretch:normal;font-size:19.75555611px;line-height:1.25;font-family:Cartoonish;-inkscape-font-specification:Cartoonish;text-align:center;letter-spacing:0px;word-spacing:0px;text-anchor:middle;fill:#00e727;fill-opacity:1;stroke:none;stroke-width:0.35049221;stroke-opacity:1"
       d="m 116.46145,208.78682 c 0.0305,0 0.0593,0.005 0.0855,0.0137 h 0.20878 c 0.22682,0 0.4629,0.0343 0.70715,0.10413 0.26171,0.0699 0.39226,0.25311 0.39226,0.54969 v 0.13074 c 0,0.1396 0.0171,0.33148 0.0521,0.57572 0.0348,0.24426 0.0699,0.50603 0.10478,0.78518 0.0523,0.2617 0.10509,0.52349 0.15744,0.7852 0.0523,0.24425 0.0958,0.4447 0.13075,0.60171 0.13957,0.83745 0.27937,1.67488 0.41894,2.51232 0.13956,0.82 0.25297,1.65744 0.34023,2.51232 0.12214,1.09915 0.30477,2.19835 0.54902,3.29751 0.24425,1.08169 0.44538,2.17234 0.6024,3.27147 h -1.49165 c -0.19191,-0.97701 -0.34954,-1.94497 -0.47165,-2.90456 -0.10467,-0.97702 -0.22668,-1.9628 -0.36623,-2.95728 -0.12214,-0.83743 -0.22697,-1.67486 -0.31422,-2.5123 -0.0873,-0.83745 -0.29625,-1.65776 -0.62773,-2.4603 l -0.44496,-0.026 c -0.40127,0.76765 -0.75866,1.54374 -1.0727,2.32885 -0.31405,0.7851 -0.59364,1.59684 -0.83791,2.43427 -0.0872,0.27915 -0.16571,0.55807 -0.23548,0.83723 -0.0699,0.26168 -0.1397,0.53204 -0.20948,0.81118 -0.035,0.10467 -0.0607,0.22667 -0.078,0.36624 -0.0175,0.12214 -0.0438,0.23554 -0.0787,0.34022 -0.0699,0.1919 -0.17464,0.33171 -0.31423,0.41895 -0.13957,0.0699 -0.30507,0.10478 -0.49698,0.10478 -0.15701,0 -0.3232,-0.0434 -0.49767,-0.13075 -0.27914,-0.54087 -0.52312,-1.09081 -0.73248,-1.64911 -0.19191,-0.57575 -0.39236,-1.14281 -0.60172,-1.70112 -0.24425,-0.64552 -0.47108,-1.3082 -0.68043,-1.98862 -0.19193,-0.68042 -0.46227,-1.32597 -0.81121,-1.9366 -0.10467,-0.17449 -0.22735,-0.29648 -0.36693,-0.36625 -0.12213,-0.0872 -0.27905,-0.17493 -0.47096,-0.26218 -0.27912,0.48849 -0.44463,1.0292 -0.49699,1.62239 -0.0523,0.57574 -0.13937,1.13426 -0.2615,1.67511 -0.19191,0.8549 -0.34886,1.7187 -0.47098,2.59104 -0.10466,0.85489 -0.22735,1.71871 -0.36693,2.59105 -0.0523,0.34892 -0.10434,0.70631 -0.15674,1.0727 -0.0523,0.36636 -0.13075,0.72376 -0.2355,1.07268 -0.0348,0.13956 -0.10477,0.23583 -0.20947,0.2882 -0.10467,0.0523 -0.22667,0.0872 -0.36624,0.10477 -0.12214,0.0174 -0.25336,0.0346 -0.39293,0.0521 -0.12187,0 -0.23502,0.0178 -0.33955,0.0528 0.0348,-0.40128 0.0955,-0.80286 0.18279,-1.20413 0.0871,-0.40126 0.17492,-0.80217 0.26218,-1.20344 0.24425,-1.41319 0.45327,-2.82627 0.62773,-4.23945 l 0.57568,-4.24018 c 0.0872,-0.57574 0.1571,-1.15138 0.20947,-1.72712 0.0699,-0.59321 0.17463,-1.16885 0.3142,-1.72714 0.0698,-0.29661 0.20892,-0.47994 0.41827,-0.5497 0.22682,-0.0699 0.47146,-0.10413 0.73316,-0.10413 0.27914,0 0.46244,0.0521 0.54969,0.15676 0.0872,0.0873 0.17425,0.25274 0.2615,0.49698 0.0873,0.24427 0.16573,0.48892 0.2355,0.73316 0.0872,0.22682 0.17424,0.46221 0.2615,0.70647 0.26169,0.64552 0.54129,1.28251 0.83789,1.91059 0.29658,0.61062 0.57551,1.23836 0.8372,1.8839 0.19191,0.50595 0.35742,1.02096 0.49699,1.54435 0.13957,0.5234 0.36641,1.01134 0.68045,1.46496 0.2966,-0.45362 0.50629,-0.93299 0.62843,-1.43894 0.12213,-0.52342 0.27049,-1.02916 0.44495,-1.51766 0.22682,-0.61065 0.42725,-1.22124 0.60172,-1.83187 0.17447,-0.62808 0.33998,-1.2565 0.497,-1.88457 0.0872,-0.27916 0.15711,-0.55808 0.20947,-0.83723 0.0523,-0.27914 0.12227,-0.55874 0.20947,-0.83789 0.0523,-0.19193 0.11366,-0.32247 0.18346,-0.39225 0.0699,-0.0699 0.20033,-0.12187 0.39225,-0.15676 0.0348,-0.01 0.0673,-0.0137 0.0979,-0.0137 z"
       id="path6165" />
    <path
       inkscape:connector-curvature="0"
       style="font-style:normal;font-variant:normal;font-weight:normal;font-stretch:normal;font-size:19.75555611px;line-height:1.25;font-family:Cartoonish;-inkscape-font-specification:Cartoonish;text-align:center;letter-spacing:0px;word-spacing:0px;text-anchor:middle;fill:#00e727;fill-opacity:1;stroke:none;stroke-width:0.35049221;stroke-opacity:1"
       d="m 189.56028,208.79981 h 0.2615 c 0.7851,0 1.51769,0.18333 2.19811,0.54971 0.69787,0.34893 1.35198,0.74127 1.96262,1.17744 -0.0873,0.2617 -0.18283,0.52349 -0.28751,0.78518 -0.10467,0.2617 -0.20954,0.52348 -0.31421,0.78519 -0.27914,-0.13959 -0.60158,-0.28795 -0.96796,-0.44497 -0.34894,-0.17447 -0.70702,-0.3314 -1.07339,-0.47097 -0.36639,-0.157 -0.73301,-0.27898 -1.09939,-0.36624 -0.36638,-0.10466 -0.70596,-0.15745 -1.01999,-0.15745 -0.61064,0 -1.15202,0.17476 -1.62308,0.52369 -0.47106,0.33149 -0.8634,0.7502 -1.17743,1.25616 -0.31404,0.50595 -0.54945,1.06447 -0.70648,1.6751 -0.15701,0.5932 -0.23547,1.15102 -0.23547,1.67443 0,0.54084 0.0956,1.09936 0.28752,1.6751 0.20935,0.66298 0.45401,1.36061 0.73314,2.09338 0.29661,0.71531 0.73244,1.30021 1.30819,1.75383 0.48851,0.38381 1.08198,0.68054 1.77985,0.88992 0.71531,0.1919 1.37798,0.28751 1.98864,0.28751 0.24424,0 0.48889,-0.0434 0.73314,-0.13075 0.24426,-0.10467 0.47966,-0.2181 0.70646,-0.34023 0.24427,-0.13957 0.47966,-0.27937 0.70647,-0.41894 0.22681,-0.15704 0.44506,-0.29614 0.65443,-0.41827 0.0699,0.12213 0.18321,0.314 0.34023,0.57571 0.15702,0.24424 0.23549,0.42688 0.23549,0.54902 0,0.12213 -0.07,0.25335 -0.20947,0.39293 -0.12214,0.12214 -0.22697,0.21774 -0.31423,0.28751 -0.29658,0.24425 -0.67178,0.4889 -1.1254,0.73317 -0.43617,0.22677 -0.84564,0.36657 -1.22946,0.41895 -0.12214,0.0175 -0.2448,0.026 -0.36692,0.026 h -0.36624 c -1.09914,0 -2.17197,-0.2354 -3.21878,-0.70645 -1.04681,-0.48853 -1.91918,-1.16902 -2.61704,-2.04136 -0.31405,-0.40127 -0.56726,-0.83781 -0.75918,-1.30887 -0.19193,-0.47106 -0.34028,-0.95966 -0.44495,-1.46563 -0.10467,-0.50596 -0.17392,-1.02028 -0.20881,-1.54367 -0.0175,-0.5234 -0.0268,-1.02915 -0.0268,-1.51766 0,-0.12214 0.01,-0.24478 0.0268,-0.36692 0.0173,-0.12214 0.0346,-0.25267 0.0521,-0.39224 0.0523,-0.48852 0.13075,-0.94218 0.23548,-1.3609 0.12214,-0.43616 0.30546,-0.87202 0.54971,-1.30819 0.45361,-0.83745 1.04707,-1.56147 1.77983,-2.1721 0.75022,-0.62807 1.61335,-1.01183 2.59035,-1.15141 0.0872,-0.0175 0.17494,-0.0268 0.2622,-0.0268 z"
       id="path6163" />
    <path
       inkscape:connector-curvature="0"
       style="font-style:normal;font-variant:normal;font-weight:normal;font-stretch:normal;font-size:19.75555611px;line-height:1.25;font-family:Cartoonish;-inkscape-font-specification:Cartoonish;text-align:center;letter-spacing:0px;word-spacing:0px;text-anchor:middle;fill:#00e727;fill-opacity:1;stroke:none;stroke-width:0.35049221;stroke-opacity:1"
       d="m 170.84249,208.82653 c -0.0872,0.29659 -0.17424,0.64541 -0.2615,1.04667 -0.0698,0.38383 -0.13114,0.78474 -0.18345,1.20345 -0.0523,0.41872 -0.0959,0.83743 -0.13075,1.25616 -0.0348,0.40127 -0.0528,0.75077 -0.0528,1.04736 0,1.13405 0.0178,2.3203 0.0528,3.55901 0.0523,1.23872 0.22642,2.40715 0.523,3.50629 0.12214,0.45362 0.3404,0.90728 0.65444,1.3609 0.3315,0.43617 0.73308,0.7329 1.20414,0.88992 0.17446,0.0523 0.35777,0.0873 0.54969,0.10477 0.19191,0.0174 0.37454,0.026 0.549,0.026 0.34895,0 0.75053,-0.0434 1.20414,-0.13075 0.47106,-0.0873 0.85484,-0.20922 1.15143,-0.36623 0.0699,-0.0348 0.16607,-0.10478 0.2882,-0.20949 0.12213,-0.10466 0.20912,-0.18311 0.26149,-0.23548 0.31405,-0.29658 0.57583,-0.62826 0.78519,-0.99465 0.22681,-0.38383 0.40087,-0.77616 0.523,-1.17744 0.13959,-0.41873 0.24445,-0.83744 0.3142,-1.25616 0.0873,-0.43617 0.14859,-0.86345 0.18348,-1.28217 0.0175,-0.13957 0.0346,-0.28793 0.052,-0.44496 0.0175,-0.17446 0.026,-0.3314 0.026,-0.47097 0,-0.33149 -0.008,-0.66319 -0.026,-0.99466 -0.0173,-0.33149 -0.026,-0.67175 -0.026,-1.02068 -0.0348,-0.88977 -0.0698,-1.76217 -0.10478,-2.61706 -0.0349,-0.87233 -0.12187,-1.75327 -0.26149,-2.64305 0.2617,-0.0348 0.51424,-0.0528 0.75848,-0.0528 0.2617,-0.0174 0.52348,-0.0346 0.78519,-0.052 0.0348,0.76765 0.0613,1.52661 0.0787,2.27682 0.0348,0.75021 0.0528,1.50918 0.0528,2.27684 0,0.54085 -0.01,1.08155 -0.0268,1.62239 -0.0175,0.54086 -0.0438,1.09012 -0.0787,1.64841 -0.0348,0.50596 -0.0785,1.02096 -0.13075,1.54436 -0.0523,0.52341 -0.13936,1.0384 -0.2615,1.54435 -0.10467,0.50596 -0.25305,0.99389 -0.44495,1.46496 -0.19193,0.47106 -0.45371,0.90759 -0.78519,1.30886 -0.47107,0.59318 -1.07309,1.02048 -1.80585,1.28218 -0.71532,0.2617 -1.43934,0.445 -2.1721,0.54969 h -0.18277 c -0.61065,0 -1.19553,-0.10477 -1.75383,-0.31421 -0.55829,-0.20936 -1.07262,-0.49685 -1.54368,-0.86321 -0.36639,-0.27916 -0.66312,-0.69787 -0.88991,-1.25617 -0.22682,-0.57574 -0.40157,-1.18633 -0.52369,-1.83188 -0.12213,-0.64552 -0.20061,-1.28249 -0.23549,-1.91059 -0.0348,-0.64552 -0.052,-1.19548 -0.052,-1.64908 0,-0.50597 0.008,-1.01171 0.026,-1.51767 0.0175,-0.52339 0.0267,-1.03771 0.0267,-1.54366 0,-0.75022 0.0607,-1.48347 0.18277,-2.1988 0.12214,-0.73275 0.26194,-1.46533 0.41895,-2.1981 0.20936,-0.0699 0.41837,-0.12187 0.62775,-0.15677 0.22679,-0.0523 0.44507,-0.0959 0.65442,-0.13074 z"
       id="path6161" />
    <path
       inkscape:connector-curvature="0"
       style="font-style:normal;font-variant:normal;font-weight:normal;font-stretch:normal;font-size:19.75555611px;line-height:1.25;font-family:Cartoonish;-inkscape-font-specification:Cartoonish;text-align:center;letter-spacing:0px;word-spacing:0px;text-anchor:middle;fill:#00e727;fill-opacity:1;stroke:none;stroke-width:0.35049221;stroke-opacity:1"
       d="m 29.661914,209.14005 c -0.104677,0 -0.209532,0.01 -0.314213,0.0268 -0.104677,0 -0.20953,0.008 -0.31421,0.026 h -0.156764 c -0.15702,0.0523 -0.287567,0.18291 -0.392248,0.39224 -0.104677,0.20936 -0.192401,0.38412 -0.262183,0.52369 -0.191917,0.45362 -0.374547,0.90728 -0.549015,1.36088 -0.157021,0.45363 -0.331772,0.9073 -0.523684,1.3609 -0.453618,1.1166 -0.880899,2.2415 -1.282174,3.37555 -0.383826,1.13403 -0.793977,2.2682 -1.230143,3.40224 -0.244255,0.64553 -0.506038,1.28251 -0.785187,1.91058 -0.261615,0.62789 -0.505727,1.26459 -0.732473,1.90993 0.331488,0.10466 0.653919,0.20952 0.967961,0.3142 0.31404,0.0873 0.63716,0.17429 0.968645,0.2615 0.139577,-0.34893 0.27869,-0.67994 0.418263,-0.99398 0.139573,-0.33147 0.262242,-0.67173 0.366923,-1.02066 0.191913,-0.66299 0.427314,-1.29997 0.706459,-1.9106 0.296594,-0.62808 0.584078,-1.2558 0.863224,-1.8839 0.715317,0.0175 1.413634,0.0432 2.094054,0.078 0.69787,0.0348 1.404068,0.0791 2.119385,0.1314 0.122123,0.0175 0.261927,0.026 0.418947,0.026 0.174467,-0.0175 0.314264,-0.01 0.418946,0.026 0.122124,0.0348 0.209164,0.0962 0.261499,0.18346 0.05235,0.0872 0.10443,0.18284 0.156764,0.28751 0.401275,0.73277 0.767907,1.48316 1.099397,2.25081 0.331488,0.75022 0.680302,1.50062 1.046685,2.25082 0.244246,-0.0348 0.488219,-0.0613 0.732472,-0.0787 0.261699,-0.0348 0.514916,-0.0785 0.759174,-0.13075 -0.104677,-0.3664 -0.209535,-0.72444 -0.314212,-1.07338 -0.104688,-0.36638 -0.226668,-0.72377 -0.366238,-1.0727 -0.471061,-1.13403 -0.994622,-2.23325 -1.57037,-3.2975 -0.558295,-1.08169 -1.072611,-2.17235 -1.543672,-3.2715 -0.348929,-0.7851 -0.654232,-1.58757 -0.915934,-2.40757 -0.244255,-0.82 -0.523853,-1.63105 -0.837894,-2.4336 -0.0349,-0.12214 -0.0784,-0.21841 -0.130747,-0.2882 -0.03488,-0.0873 -0.121924,-0.14791 -0.261498,-0.18277 -0.08724,-0.0348 -0.20922,-0.0528 -0.366238,-0.0528 h -0.340229 z m -0.209475,2.09405 0.628423,0.13075 c 0.296593,0.94212 0.584076,1.8844 0.863222,2.82653 0.279147,0.94212 0.610832,1.86658 0.99466,2.77382 l -0.261499,0.23548 c -0.662978,-0.12214 -1.326345,-0.20915 -1.989317,-0.2615 -0.662977,-0.0523 -1.32566,-0.14866 -1.988634,-0.2882 0.226808,-1.09915 0.48859,-2.19836 0.785185,-3.2975 0.104677,-0.38383 0.243794,-0.7412 0.418262,-1.0727 0.174468,-0.34894 0.357786,-0.69776 0.549698,-1.04668 z"
       id="path6159" />
    <path
       inkscape:connector-curvature="0"
       style="font-style:normal;font-variant:normal;font-weight:normal;font-stretch:normal;font-size:19.75555611px;line-height:1.25;font-family:Cartoonish;-inkscape-font-specification:Cartoonish;text-align:center;letter-spacing:0px;word-spacing:0px;text-anchor:middle;fill:#00e727;fill-opacity:1;stroke:none;stroke-width:0.35049221;stroke-opacity:1"
       d="m 158.21245,209.14005 c -0.10467,0 -0.20953,0.01 -0.3142,0.0268 -0.10467,0 -0.20953,0.008 -0.31422,0.026 h -0.15676 c -0.15702,0.0523 -0.28826,0.18291 -0.39294,0.39224 -0.10467,0.20936 -0.19172,0.38412 -0.26149,0.52369 -0.19193,0.45362 -0.37523,0.90728 -0.54971,1.36088 -0.15702,0.45363 -0.33108,0.9073 -0.52298,1.3609 -0.45363,1.1166 -0.8816,2.2415 -1.28287,3.37555 -0.38383,1.13403 -0.79329,2.2682 -1.22946,3.40224 -0.24427,0.64553 -0.50604,1.28251 -0.78519,1.91058 -0.26161,0.62789 -0.50641,1.26459 -0.73315,1.90993 0.33147,0.10466 0.6546,0.20952 0.96864,0.3142 0.31403,0.0873 0.63646,0.17429 0.96796,0.2615 0.13957,-0.34893 0.27937,-0.67994 0.41895,-0.99398 0.13956,-0.33147 0.26155,-0.67173 0.36623,-1.02066 0.19192,-0.66299 0.42732,-1.29997 0.70646,-1.9106 0.2966,-0.62808 0.58476,-1.2558 0.86392,-1.8839 0.71532,0.0175 1.41295,0.0432 2.09336,0.078 0.69788,0.0348 1.40475,0.0791 2.12006,0.1314 0.12214,0.0175 0.26194,0.026 0.41896,0.026 0.17447,-0.0175 0.31359,-0.01 0.41827,0.026 0.12213,0.0348 0.20984,0.0962 0.26218,0.18346 0.0523,0.0872 0.10434,0.18284 0.15676,0.28751 0.40127,0.73277 0.76791,1.48316 1.09939,2.25081 0.3315,0.75022 0.6803,1.50062 1.04669,2.25082 0.24425,-0.0348 0.48821,-0.0613 0.73247,-0.0787 0.2617,-0.0348 0.51493,-0.0785 0.75918,-0.13075 -0.10467,-0.3664 -0.20953,-0.72444 -0.31421,-1.07338 -0.10466,-0.36638 -0.22667,-0.72377 -0.36624,-1.0727 -0.47107,-1.13403 -0.99462,-2.23325 -1.57038,-3.2975 -0.55827,-1.08169 -1.0726,-2.17235 -1.54366,-3.2715 -0.34894,-0.7851 -0.65492,-1.58757 -0.91662,-2.40757 -0.24427,-0.82 -0.52318,-1.63105 -0.83721,-2.4336 -0.0348,-0.12214 -0.0784,-0.21841 -0.13075,-0.2882 -0.0348,-0.0873 -0.12187,-0.14791 -0.2615,-0.18277 -0.0873,-0.0348 -0.20992,-0.0528 -0.36691,-0.0528 h -0.34025 z m -0.20947,2.09405 0.62773,0.13075 c 0.2966,0.94212 0.58476,1.8844 0.86391,2.82653 0.27915,0.94212 0.61083,1.86658 0.99467,2.77382 l -0.2622,0.23548 c -0.66296,-0.12214 -1.32565,-0.20915 -1.98862,-0.2615 -0.66297,-0.0523 -1.32635,-0.14866 -1.98932,-0.2882 0.22679,-1.09915 0.48859,-2.19836 0.78518,-3.2975 0.10467,-0.38383 0.24447,-0.7412 0.41896,-1.0727 0.17446,-0.34894 0.35777,-0.69776 0.54969,-1.04668 z"
       id="path6157" />
    <path
       inkscape:connector-curvature="0"
       style="font-style:normal;font-variant:normal;font-weight:normal;font-stretch:normal;font-size:19.75555611px;line-height:1.25;font-family:Cartoonish;-inkscape-font-specification:Cartoonish;text-align:center;letter-spacing:0px;word-spacing:0px;text-anchor:middle;fill:#00e727;fill-opacity:1;stroke:none;stroke-width:0.35049221;stroke-opacity:1"
       d="m 138.6506,241.25115 c 0.5932,0 1.16953,0.10413 1.72783,0.31352 0.24425,0.10467 0.52316,0.22735 0.8372,0.36693 0.31404,0.13957 0.60152,0.31364 0.86323,0.523 0.27914,0.19191 0.51523,0.41018 0.70714,0.65442 0.19192,0.24427 0.28751,0.52319 0.28751,0.83723 0,0.0698 -0.0171,0.17463 -0.052,0.3142 -0.10466,0.12214 -0.20952,0.23554 -0.3142,0.34022 -0.10467,0.10467 -0.20953,0.20955 -0.3142,0.31422 -0.38384,-0.62808 -0.90741,-1.12528 -1.57039,-1.49164 -0.66297,-0.38384 -1.36917,-0.57572 -2.11938,-0.57572 -0.95957,0 -1.70997,0.2618 -2.25082,0.78519 -0.54084,0.5234 -0.81119,1.27312 -0.81119,2.25012 v 0.10478 c 0.0873,0.40128 0.27912,0.75934 0.57571,1.07338 0.2966,0.31404 0.61971,0.56658 0.96865,0.75848 0.27914,0.15705 0.58445,0.27046 0.91594,0.34023 0.33148,0.0523 0.65391,0.0959 0.96794,0.13075 0.3315,0.0349 0.65462,0.0877 0.96866,0.15744 0.33149,0.0699 0.64536,0.19176 0.94193,0.36624 0.50596,0.31404 0.93325,0.76769 1.28218,1.36089 0.36638,0.57575 0.63673,1.14281 0.81121,1.70111 0.13957,0.45361 0.20947,0.8809 0.20947,1.28219 0,0.4885 -0.14836,0.95073 -0.44496,1.3869 -0.27916,0.43617 -0.64509,0.8285 -1.09872,1.17742 -0.43617,0.3315 -0.91622,0.60253 -1.43961,0.8119 -0.50596,0.20936 -0.97675,0.33134 -1.41292,0.36623 -0.19191,0.0173 -0.39305,0.0346 -0.60241,0.0521 h -0.57571 c -0.33149,0 -0.63679,-0.0263 -0.91593,-0.0787 -0.26171,-0.0699 -0.54062,-0.20034 -0.83723,-0.39224 -0.55828,-0.38384 -1.05547,-0.81969 -1.49164,-1.30819 -0.41871,-0.50596 -0.80247,-1.05591 -1.15142,-1.64911 0.17448,-0.20935 0.39205,-0.43619 0.65376,-0.68044 0.27914,0.36638 0.57587,0.71519 0.88991,1.04669 0.31405,0.31404 0.65429,0.60222 1.02068,0.8639 0.36639,0.24427 0.75871,0.44471 1.17743,0.60174 0.41872,0.13956 0.87238,0.20947 1.3609,0.20947 0.27914,0 0.57587,-0.0349 0.88991,-0.10477 0.31406,-0.0873 0.60221,-0.20921 0.86392,-0.36624 0.2617,-0.17446 0.48854,-0.37492 0.68044,-0.60171 0.1919,-0.24427 0.31388,-0.52387 0.36624,-0.8379 0.0348,-0.10467 0.052,-0.21811 0.052,-0.34023 v -0.34023 c 0,-0.68042 -0.10412,-1.24749 -0.31351,-1.70112 -0.20937,-0.47106 -0.49753,-0.85483 -0.86391,-1.15141 -0.36637,-0.2966 -0.80223,-0.532 -1.30819,-0.70647 -0.50595,-0.19192 -1.04735,-0.3574 -1.62308,-0.49698 -0.94212,-0.20936 -1.64832,-0.59313 -2.11938,-1.15142 -0.47107,-0.55831 -0.70646,-1.32583 -0.70646,-2.30285 v -0.15744 c 0.0873,-0.54086 0.28768,-1.09869 0.60173,-1.67443 0.33148,-0.59318 0.69811,-1.07324 1.09939,-1.43962 0.34893,-0.33149 0.74983,-0.56688 1.20345,-0.70646 0.47106,-0.15702 0.94186,-0.23548 1.41292,-0.23548 z"
       id="path6137" />
    <path
       inkscape:connector-curvature="0"
       style="font-style:normal;font-variant:normal;font-weight:normal;font-stretch:normal;font-size:19.75555611px;line-height:1.25;font-family:Cartoonish;-inkscape-font-specification:Cartoonish;text-align:center;letter-spacing:0px;word-spacing:0px;text-anchor:middle;fill:#00e727;fill-opacity:1;stroke:none;stroke-width:0.35049221;stroke-opacity:1"
       d="m 123.34739,241.53867 c -1.13405,0 -2.23325,0.13128 -3.29752,0.39293 -0.0699,1.20382 -0.13035,2.39864 -0.18277,3.58501 -0.0348,1.18638 -0.0528,2.3812 -0.0528,3.58503 0,1.29106 0.0263,2.57357 0.0787,3.84719 0.0699,1.25616 0.17462,2.52088 0.31423,3.79449 0.43617,0.0873 0.86344,0.16572 1.28217,0.23549 0.43616,0.0699 0.88126,0.10477 1.33487,0.10477 h 0.91594 c 0.33149,-0.0175 0.65392,-0.0346 0.96796,-0.0521 0.33148,-0.0348 0.6546,-0.0877 0.96865,-0.15746 0.31404,-0.0698 0.60152,-0.1568 0.86322,-0.26149 0.54085,-0.24426 1.02946,-0.57593 1.46563,-0.99466 0.43618,-0.41872 0.77644,-0.89809 1.02068,-1.43894 0.0348,-0.0873 0.0699,-0.17428 0.10478,-0.26149 0.0523,-0.10467 0.0873,-0.20098 0.10477,-0.2882 0.0173,-0.0873 0.026,-0.18287 0.026,-0.28751 v -0.31423 c 0,-0.47105 -0.07,-0.97749 -0.20948,-1.51834 -0.12213,-0.54083 -0.3404,-0.99382 -0.65444,-1.3602 -0.17447,-0.20935 -0.39206,-0.38411 -0.65374,-0.52369 -0.24427,-0.15701 -0.51461,-0.28757 -0.81121,-0.39224 -0.27914,-0.10467 -0.56732,-0.1924 -0.86391,-0.26219 -0.29659,-0.0698 -0.5755,-0.12187 -0.83721,-0.15676 l -0.0787,-0.34022 c 0.54085,-0.0873 1.08153,-0.18355 1.62239,-0.28821 0.55829,-0.12214 1.06404,-0.34894 1.51765,-0.68044 0.43618,-0.31404 0.75931,-0.71495 0.96866,-1.20345 0.22682,-0.50596 0.34022,-1.02095 0.34022,-1.54436 0,-0.15702 -0.008,-0.31396 -0.026,-0.47097 -0.0175,-0.17448 -0.0524,-0.3314 -0.10478,-0.47097 -0.15701,-0.47106 -0.48871,-0.84626 -0.99465,-1.1254 -0.48852,-0.2966 -1.04703,-0.53201 -1.67511,-0.70648 -0.62808,-0.17446 -1.25581,-0.28789 -1.88389,-0.34022 -0.62809,-0.0699 -1.15166,-0.10477 -1.57037,-0.10477 z m 0.026,1.57035 h 0.47166 c 0.26171,0 0.61908,0.0171 1.0727,0.0521 0.45361,0.0348 0.88946,0.11339 1.30819,0.23548 0.43617,0.12214 0.81136,0.28832 1.1254,0.49768 0.33148,0.20936 0.49767,0.49683 0.49767,0.86322 0,0.0523 -0.008,0.1052 -0.026,0.15745 0,0.0348 -0.01,0.0785 -0.0268,0.13075 -0.13957,0.50595 -0.3486,0.90684 -0.62773,1.20345 -0.2617,0.2966 -0.57626,0.53267 -0.94265,0.70715 -0.36638,0.17446 -0.76727,0.28787 -1.20344,0.34022 -0.41871,0.0523 -0.85526,0.078 -1.30886,0.078 -0.34895,0 -0.70634,-0.01 -1.0727,-0.026 -0.36639,-0.0175 -0.72377,-0.0438 -1.0727,-0.0787 0.0175,-0.20936 0.0346,-0.48827 0.052,-0.8372 0.0175,-0.36638 0.0353,-0.7416 0.0528,-1.12541 0.0348,-0.38384 0.0691,-0.74122 0.10413,-1.07271 0.0348,-0.33149 0.0791,-0.57613 0.13141,-0.73317 0.0348,-0.10466 0.13048,-0.18313 0.28751,-0.23547 0.17448,-0.0699 0.36635,-0.11326 0.57572,-0.13075 0.20936,-0.0173 0.4098,-0.026 0.60173,-0.026 z m -0.0521,6.09736 c 0.47107,0 0.93331,0.07 1.38692,0.20946 0.47106,0.12213 0.89835,0.31402 1.28217,0.57571 0.40128,0.24425 0.75079,0.54956 1.04738,0.91593 0.2966,0.36639 0.51417,0.78511 0.65374,1.25617 0.0348,0.10467 0.0612,0.21808 0.0787,0.34022 0.0173,0.10467 0.026,0.20953 0.026,0.31421 0,0.2966 -0.0607,0.58475 -0.18279,0.86391 -0.10467,0.26171 -0.25304,0.51423 -0.44495,0.75848 -0.19192,0.22681 -0.41018,0.42727 -0.65444,0.60173 -0.2268,0.17448 -0.47077,0.31427 -0.73248,0.41895 -0.55827,0.22679 -1.17814,0.36661 -1.85856,0.41894 -0.66298,0.0348 -1.29071,0.0521 -1.88389,0.0521 h -0.44497 c -0.15702,-0.0174 -0.27899,-0.0873 -0.36623,-0.20947 -0.0523,-0.62809 -0.0787,-1.26437 -0.0787,-1.90992 v -1.62308 c 0.0175,-0.54084 0.0346,-1.08154 0.052,-1.62239 0,-0.1919 0.01,-0.37523 0.0268,-0.54969 0.0175,-0.19192 0.0695,-0.37454 0.15676,-0.54903 0.2268,-0.0873 0.54068,-0.14857 0.94194,-0.18345 0.41872,-0.0523 0.75041,-0.0787 0.99466,-0.0787 z"
       id="path6133" />
    <path
       inkscape:connector-curvature="0"
       style="font-style:normal;font-variant:normal;font-weight:normal;font-stretch:normal;font-size:19.75555611px;line-height:1.25;font-family:Cartoonish;-inkscape-font-specification:Cartoonish;text-align:center;letter-spacing:0px;word-spacing:0px;text-anchor:middle;fill:#00e727;fill-opacity:1;stroke:none;stroke-width:0.35049221;stroke-opacity:1"
       d="m 90.438767,241.61738 v 0.62775 c 0,0.40127 -0.009,0.81141 -0.0268,1.23014 v 1.25617 c 0,0.22682 0.009,0.45364 0.0268,0.68044 0.0174,0.2268 0.0346,0.45364 0.0521,0.68045 0.0175,0.50594 0.026,1.0117 0.026,1.51766 0.0175,0.4885 0.0268,0.98569 0.0268,1.49165 0,0.94211 -0.009,1.89295 -0.0268,2.85254 -0.0174,0.94212 -0.008,1.89297 0.0268,2.85252 0.40129,0.0348 0.80218,0.0613 1.20346,0.0787 0.41872,0.0175 0.83743,0.026 1.25615,0.026 0.55829,0 1.11681,-0.0257 1.6751,-0.078 0.5583,-0.0523 1.11682,-0.0787 1.67511,-0.0787 0.40127,0 0.79361,0.0171 1.17744,0.052 0.40128,0.0175 0.80217,0.0439 1.20345,0.0787 0.0349,0.26169 0.0614,0.52347 0.0787,0.78519 0.0348,0.24423 0.0699,0.49746 0.10477,0.75917 -0.73277,-0.0175 -1.46535,-3.4e-4 -2.19811,0.052 -0.7153,0.0523 -1.43933,0.0959 -2.17209,0.13076 -0.88978,0.0523 -1.77999,0.0787 -2.66976,0.0787 -0.87234,-0.0175 -1.74473,0.0695 -2.617053,0.26149 -0.03484,-0.19191 -0.05206,-0.36597 -0.05206,-0.52298 v -0.54972 -0.94193 c 0.01748,-0.31404 0.02596,-0.6286 0.02596,-0.94264 v -0.523 c -0.05232,-1.25616 -0.07803,-2.51232 -0.07803,-3.76847 v -2.66977 c 0,-0.90722 -0.01788,-1.80531 -0.05272,-2.69508 v -0.70716 -0.8372 c 0,-0.27916 0.008,-0.56664 0.02596,-0.86323 v -7e-4 c 0.401264,-0.12213 0.837804,-0.22626 1.308873,-0.31352 z"
       id="path6131" />
    <path
       inkscape:connector-curvature="0"
       style="font-style:normal;font-variant:normal;font-weight:normal;font-stretch:normal;font-size:19.75555611px;line-height:1.25;font-family:Cartoonish;-inkscape-font-specification:Cartoonish;text-align:center;letter-spacing:0px;word-spacing:0px;text-anchor:middle;fill:#00e727;fill-opacity:1;stroke:none;stroke-width:0.35049221;stroke-opacity:1"
       d="m 108.99022,241.85288 c -0.10467,0 -0.20953,0.008 -0.31421,0.026 -0.10466,0 -0.20953,0.01 -0.31422,0.0268 h -0.15677 c -0.15701,0.0523 -0.28825,0.1829 -0.39292,0.39224 -0.10467,0.20936 -0.19172,0.38411 -0.26151,0.5237 -0.19191,0.4536 -0.37523,0.90726 -0.5497,1.36088 -0.15701,0.45362 -0.33108,0.90728 -0.523,1.3609 -0.4536,1.11658 -0.88157,2.2415 -1.28285,3.37555 -0.38383,1.13403 -0.79329,2.2682 -1.22947,3.40224 -0.24425,0.64552 -0.50603,1.2825 -0.78518,1.91059 -0.26169,0.62808 -0.50635,1.26436 -0.73315,1.90991 0.33148,0.10467 0.6546,0.20953 0.96864,0.3142 0.31403,0.0873 0.63647,0.17429 0.96795,0.2615 0.13957,-0.34893 0.27939,-0.68062 0.41896,-0.99465 0.13957,-0.3315 0.26156,-0.67174 0.36623,-1.02068 0.19193,-0.66297 0.42732,-1.29926 0.70646,-1.90991 0.2966,-0.62807 0.58476,-1.2565 0.86391,-1.88457 0.71532,0.0175 1.41297,0.0438 2.09336,0.0787 0.69788,0.0348 1.40477,0.0785 2.12007,0.13075 0.12214,0.0175 0.26193,0.026 0.41895,0.026 0.17448,-0.0175 0.31358,-0.008 0.41827,0.0268 0.12214,0.0348 0.20984,0.0955 0.26218,0.18278 0.0523,0.0873 0.10435,0.18353 0.15677,0.28819 0.40126,0.73277 0.76792,1.48316 1.09939,2.25081 0.33149,0.75022 0.68031,1.49993 1.04668,2.25014 0.24426,-0.0348 0.48822,-0.0605 0.73248,-0.078 0.26169,-0.0348 0.51492,-0.0791 0.75917,-0.1314 -0.10467,-0.36637 -0.20953,-0.72377 -0.3142,-1.0727 -0.10467,-0.36638 -0.22668,-0.72377 -0.36625,-1.0727 -0.47105,-1.13404 -0.99462,-2.23326 -1.57037,-3.2975 -0.55829,-1.0817 -1.0726,-2.17235 -1.54367,-3.27149 -0.34894,-0.7851 -0.65493,-1.58758 -0.91661,-2.40758 -0.24426,-0.82 -0.52317,-1.63104 -0.8372,-2.4336 -0.0348,-0.12213 -0.0785,-0.2184 -0.13075,-0.2882 -0.0348,-0.0873 -0.12188,-0.14789 -0.26152,-0.18277 -0.0873,-0.0348 -0.20991,-0.0528 -0.36691,-0.0528 H 109.199 Z m -0.20949,2.09337 0.62774,0.13074 c 0.2966,0.94213 0.58476,1.88441 0.86391,2.82653 0.27916,0.94213 0.61084,1.86727 0.99466,2.77451 l -0.26218,0.23548 c -0.66297,-0.12214 -1.32566,-0.20985 -1.98863,-0.26218 -0.66299,-0.0523 -1.32635,-0.14798 -1.98933,-0.28751 0.22681,-1.09914 0.48859,-2.19836 0.7852,-3.2975 0.10466,-0.38385 0.24448,-0.74192 0.41894,-1.07339 0.17446,-0.34893 0.35779,-0.69774 0.54969,-1.04668 z"
       id="path6129" />
  </g>
</svg>
